<svg id="图层_1" data-name="图层 1" xmlns="http://www.w3.org/2000/svg" viewBox="0 0 20 20"><defs><style>.cls-1{fill:#ff8000;}</style></defs><title>电话1</title><g id="Phone_on_v2_副本_2" data-name="Phone on v2 副本 2"><path class="cls-1" d="M19.6,15.36c-.42,0-5-2.15-5.45-2.16S12.32,14.6,11.9,15s-4-2.78-4.08-2.84S4.58,8.5,5,8.1,6.82,6.25,6.8,5.83,4.66.79,4.64.38,2.25.09,1.46.88-1.65,5,2.71,11.11a19.23,19.23,0,0,0,2.85,3.32h0a19.2,19.2,0,0,0,3.32,2.86c6.06,4.37,9.54,1.92,10.21,1.25S20,15.37,19.6,15.36Z"/></g></svg>